<?xml version="1.0" encoding="utf-8"?>
<!-- Generator: Adobe Illustrator 26.5.0, SVG Export Plug-In . SVG Version: 6.00 Build 0)  -->
<svg version="1.1" id="Layer_1" xmlns="http://www.w3.org/2000/svg" xmlns:xlink="http://www.w3.org/1999/xlink" x="0px" y="0px"
	 viewBox="0 0 31.1 30.2" style="enable-background:new 0 0 31.1 30.2;" xml:space="preserve">
<style type="text/css">
	.st0{fill:#F7EED2;}
</style>
<path class="st0" d="M5.8,2.5c-1.6,0-3,1.3-3,3v19.2c0,1.6,1.3,3,3,3h10.1c0.1,0,0.1,0,0.2,0h3.4c0.1,0,0.1,0,0.2,0H25
	c1.6,0,3-1.3,3-3V5.4c0-1.6-1.3-3-3-3L5.8,2.5L5.8,2.5z M5.8,3.7H25c1,0,1.8,0.8,1.8,1.8v19.2c0,1-0.8,1.8-1.8,1.8h-4.8V18h2.3
	l0.8-4.2h-3.1v-1.2c0-0.3,0-0.4,0.1-0.4c0.1-0.1,0.5-0.2,1.1-0.2h1.8V8.7l-0.3-0.2c0,0-1.4-0.7-3.3-0.7c-1.3,0-2.5,0.5-3.2,1.4
	c-0.7,0.9-1,2.1-1,3.4v1.2h-1.8V18h1.8v8.4H5.8c-1,0-1.8-0.8-1.8-1.8V5.4C4,4.4,4.8,3.7,5.8,3.7z M19.6,9c1.2,0,2,0.3,2.4,0.4v1.4
	h-0.6c-0.7,0-1.2,0.1-1.7,0.4c-0.5,0.3-0.7,0.9-0.7,1.4V15h2.9l-0.4,1.8H19v9.6h-2.4v-9.6h-1.8V15h1.8v-2.4c0-1.1,0.3-2,0.8-2.6
	C17.8,9.4,18.5,9,19.6,9z"/>
</svg>
