<?xml version="1.0" encoding="utf-8"?>
<!-- Generator: Adobe Illustrator 26.5.0, SVG Export Plug-In . SVG Version: 6.00 Build 0)  -->
<svg version="1.1" id="Layer_1" xmlns="http://www.w3.org/2000/svg" xmlns:xlink="http://www.w3.org/1999/xlink" x="0px" y="0px"
	 viewBox="0 0 37.1 30.2" style="enable-background:new 0 0 37.1 30.2;" xml:space="preserve">
<style type="text/css">
	.st0{fill:none;stroke:#F7EED2;stroke-width:1.25;stroke-miterlimit:10;}
</style>
<path class="st0" d="M34.4,6.7c-1.1,0.5-2.2,0.8-3.5,0.9c1.2-0.7,2.2-1.9,2.7-3.2c-1.2,0.7-2.5,1.2-3.8,1.4C28.6,4.7,27,4,25.2,4
	c-3.3,0-6,2.6-6,5.8c0,0.5,0,0.9,0.1,1.3C12.9,11.1,8.6,7.5,5.6,4C5,4.8,4.8,5.9,4.8,7c0,2,1.1,3.8,2.7,4.9c-1-0.1-2-0.4-2.7-0.7
	c0,0,0,0,0,0.1c0,2.9,2.1,5.2,4.8,5.7c-0.5,0.1-1,0.2-1.6,0.2c-0.4,0-0.7,0-1.1-0.1c0.7,2.4,4.2,5.1,6.9,5.1c-2.1,1.5-4,2.9-7.9,2.9
	c-0.5,0-0.1,0-1.1,0c2.7,1.7,5.9,2.1,9.3,2.1c11.2,0,17.3-8.9,17.3-16.7c0-0.2,0-0.5,0-0.7C32.5,9,33.5,7.9,34.4,6.7"/>
</svg>
